<svg width="192" height="192" viewBox="0 0 192 192" fill="none" xmlns="http://www.w3.org/2000/svg">
<rect width="192" height="192" fill="#1A1D53"/>
<path opacity="0.1" d="M109.175 175.949C98.7033 176.865 89.2167 175.644 80.7155 172.284C72.347 168.766 65.5776 163.422 60.4071 156.254C55.3694 148.927 52.4178 140.318 51.5526 130.428L46.609 73.9231C45.7437 64.0328 47.1683 55.188 50.8826 47.3886C54.7297 39.431 60.4748 33.0661 68.118 28.2938C75.8939 23.3633 85.0178 20.44 95.4898 19.5238C105.962 18.6076 115.376 19.8358 123.731 23.2084C132.074 26.4355 138.746 31.4943 143.745 38.3848C148.89 45.2626 151.883 53.5011 152.723 63.1005L152.742 63.3186C152.805 64.0458 152.638 64.6467 152.24 65.1212C151.842 65.5957 151.352 65.8584 150.77 65.9093L134.266 68.2326C132.811 68.3599 132.027 67.769 131.912 66.46L131.855 65.8055C131.041 56.497 127.476 49.2611 121.162 44.0978C114.848 38.9345 106.819 36.7791 97.074 37.6316C87.3293 38.4842 79.7234 42.0075 74.2564 48.2015C68.9349 54.3829 66.6814 62.1277 67.4957 71.4362L72.5729 129.469C73.3873 138.777 76.9515 146.013 83.2655 151.176C89.725 156.327 97.8272 158.476 107.572 157.623C117.317 156.771 124.85 153.254 130.171 147.072C135.493 140.891 137.746 133.146 136.932 123.838L136.894 123.401C136.779 122.092 137.449 121.374 138.904 121.247L155.561 120.669C157.015 120.542 157.806 121.206 157.933 122.66C158.773 132.259 157.263 140.965 153.403 148.777C149.676 156.431 143.991 162.644 136.348 167.417C128.705 172.189 119.647 175.033 109.175 175.949Z" fill="white" fill-opacity="0.5"/>
<path d="M100.692 173.621C90.6505 174.499 81.5537 173.328 73.4019 170.106C65.3774 166.732 58.8861 161.609 53.9281 154.735C49.0974 147.709 46.2672 139.454 45.4375 129.97L40.6971 75.7873C39.8673 66.3036 41.2333 57.8222 44.7951 50.3433C48.4841 42.7128 53.9931 36.6094 61.3221 32.0332C68.7784 27.3054 77.5274 24.5022 87.5691 23.6237C97.6107 22.7451 106.638 23.9229 114.65 27.1568C122.65 30.2514 129.047 35.1023 133.841 41.7096C138.775 48.3047 141.644 56.2047 142.45 65.4095L142.468 65.6187C142.529 66.316 142.369 66.8922 141.987 67.3472C141.605 67.8022 141.135 68.0541 140.577 68.1029L124.751 70.3308C123.357 70.4528 122.604 69.8862 122.495 68.631L122.44 68.0034C121.659 59.0775 118.241 52.1389 112.186 47.1878C106.132 42.2366 98.4325 40.1698 89.0882 40.9873C79.7439 41.8049 72.4506 45.1834 67.2083 51.1229C62.1055 57.0502 59.9445 64.4768 60.7254 73.4027L65.594 129.05C66.3749 137.976 69.7926 144.915 75.8472 149.866C82.0412 154.805 89.8104 156.865 99.1547 156.048C108.499 155.23 115.723 151.858 120.825 145.931C125.928 140.003 128.089 132.577 127.308 123.651L127.272 123.232C127.162 121.977 127.804 121.289 129.199 121.167L145.171 120.612C146.566 120.49 147.324 121.127 147.446 122.521C148.252 131.726 146.804 140.074 143.103 147.565C139.529 154.905 134.077 160.862 126.748 165.439C119.419 170.015 110.734 172.742 100.692 173.621Z" fill="#09D3AF"/>
<path d="M95.9357 171.336C86.2288 172.185 77.4353 171.053 69.5552 167.938C61.7981 164.677 55.5232 159.724 50.7305 153.08C46.0608 146.288 43.3249 138.308 42.5229 129.141L37.9405 76.7638C37.1384 67.5962 38.4589 59.3976 41.9019 52.168C45.4679 44.7918 50.7933 38.8918 57.8781 34.4682C65.0858 29.8979 73.5432 27.1882 83.2501 26.339C92.957 25.4897 101.683 26.6282 109.428 29.7544C117.162 32.7457 123.346 37.4349 127.98 43.822C132.749 50.1973 135.523 57.8339 136.301 66.7319L136.319 66.9342C136.378 67.6082 136.223 68.1652 135.854 68.6051C135.485 69.0449 135.031 69.2884 134.491 69.3356L119.193 71.4891C117.845 71.6071 117.118 71.0594 117.011 69.846L116.958 69.2393C116.203 60.6109 112.9 53.9037 107.047 49.1176C101.194 44.3315 93.7514 42.3336 84.7186 43.1238C75.6858 43.9141 68.6356 47.18 63.568 52.9215C58.6353 58.6512 56.5464 65.8303 57.3013 74.4587L62.0075 128.251C62.7624 136.88 66.0662 143.587 71.9189 148.373C77.9065 153.147 85.4167 155.139 94.4495 154.349C103.482 153.559 110.465 150.299 115.398 144.569C120.331 138.839 122.42 131.66 121.665 123.032L121.629 122.627C121.523 121.414 122.144 120.748 123.492 120.63L138.932 120.095C140.281 119.977 141.014 120.592 141.132 121.94C141.91 130.838 140.51 138.908 136.933 146.149C133.478 153.244 128.208 159.003 121.123 163.427C114.038 167.85 105.643 170.487 95.9357 171.336Z" fill="#1A1D53"/>
</svg>
